<?xml version="1.0" standalone="no"?><!DOCTYPE svg PUBLIC "-//W3C//DTD SVG 1.1//EN" "http://www.w3.org/Graphics/SVG/1.1/DTD/svg11.dtd"><svg width="100%" height="100%" viewBox="0 0 73 73" version="1.1" xmlns="http://www.w3.org/2000/svg" xmlns:xlink="http://www.w3.org/1999/xlink" xml:space="preserve" style="fill-rule:evenodd;clip-rule:evenodd;stroke-linecap:round;stroke-linejoin:round;stroke-miterlimit:1.41421;"><path d="M44.534,70.796c-2.556,0.589 -5.216,0.9 -7.949,0.9c-1.744,0 -3.458,-0.127 -5.133,-0.371l0.218,-0.035c0,0 6.883,-9.534 6.849,-11.544c-0.033,-2.01 3.357,2.655 4.543,2.632c1.187,-0.022 -0.364,4.83 0.119,5.762c0.484,0.932 0.822,2.352 0.726,2.529c-0.017,0.032 0.222,0.077 0.627,0.127ZM22.095,68.592c-12.282,-5.536 -20.839,-17.889 -20.839,-32.225c0,-19.499 15.83,-35.329 35.329,-35.329c19.498,0 35.328,15.83 35.328,35.329c0,14.085 -8.261,26.257 -20.198,31.929c-0.043,-2.378 -0.07,-5.352 0.255,-5.925c0.557,-0.982 -2.825,-5.319 -2.873,-5.611c-0.048,-0.291 -2.279,-4.966 -2.362,-5.287c-0.083,-0.321 -3.105,-5.006 -3.105,-5.433c0,-0.427 -0.845,-4.395 1.124,-6.457c1.968,-2.062 1.128,1.517 3.38,-0.207c2.252,-1.724 6.221,3.044 6.619,3.177c0.398,0.134 4.477,2.292 4.477,2.292c0,0 0.278,1.756 0.822,1.95c0.545,0.194 2.702,-0.354 3.145,-0.702c0.442,-0.348 1.099,-1.894 0.836,-2.568c-0.263,-0.674 -1.412,-2.29 -1.798,-2.64c-0.385,-0.35 -11.543,-8.918 -11.85,-10.266c-0.306,-1.348 -1.086,-2.395 -0.99,-3.214c0.096,-0.819 -0.468,-3.728 -0.74,-3.924c-0.271,-0.196 0.947,-1.552 0.997,-2.094c0.05,-0.541 -0.432,-2.531 0.127,-3.304c0.559,-0.774 1.603,-3.104 1.276,-3.795c-0.327,-0.69 -3.706,-7.546 -6.602,-7.083c-2.897,0.463 -7.377,8.027 -7.2,8.349c0.178,0.321 -0.996,1.276 -1.305,1.357c-0.309,0.081 -2.052,-0.387 -2.912,0.055c-0.861,0.441 -5.645,4.506 -6.198,5.692c-0.552,1.187 -1.898,4.652 -2.724,5.563c-0.826,0.911 -3.438,2.509 -3.995,3.543c-0.556,1.034 -0.493,3.025 -1.244,4.45c-0.751,1.424 -3.14,5.879 -3.749,6.455c-0.609,0.575 -1.989,1.828 -2.428,1.924c-0.438,0.096 -2.447,-1.783 -3.192,-0.473c-0.744,1.31 -0.957,1.262 -1.005,1.31c-0.048,0.048 -0.231,0.559 -0.231,0.559c0,0 -0.469,1.182 -0.273,1.426c0.169,0.21 0.086,0.802 0.059,0.962l-0.007,0.041c0,0 -0.063,-0.296 0.131,0.34c0.194,0.637 1.141,1.733 2.574,2.3c1.432,0.567 2.106,0.688 3.463,0.157c1.358,-0.532 1.851,-1.585 2.575,-1.702c0.724,-0.117 2.528,-1.413 2.809,-1.849c0.282,-0.436 1.139,-3.221 1.731,-3.947c0.592,-0.726 1.931,-1.585 2.231,-1.887c0.301,-0.302 0.052,-0.842 0.665,-1.739c0.613,-0.896 1.604,-1.945 1.604,-1.945c0,0 -3.192,8.402 -2.767,8.744c0.426,0.342 1.508,2.234 2.277,3.057c0.769,0.823 3.042,3.372 3.092,4.12c0.051,0.749 0.176,4.446 -1.086,6.652c-1.261,2.206 -1.524,3.143 -3.014,5.268c-0.676,0.962 -1.476,1.842 -2.239,2.605ZM8.18,48.758c-0.194,-0.636 -0.131,-0.34 -0.131,-0.34c0,0 0.003,-0.015 0.007,-0.041l0.124,0.381Z" style="fill:#2980b9;stroke-width:1.5px;stroke:#1e2a36;"/></svg>